<svg width="26" height="24" viewBox="0 0 26 24" fill="none" xmlns="http://www.w3.org/2000/svg">
<path d="M13.3173 0.375C20.1047 0.375 25.6039 5.57812 25.6039 12C25.6039 18.4219 20.1047 23.625 13.3173 23.625C6.53 23.625 1.03076 18.4219 1.03076 12C1.03076 5.57812 6.53 0.375 13.3173 0.375ZM11.8856 7.10625L15.626 10.5H6.57954C5.92062 10.5 5.39052 11.0016 5.39052 11.625V12.375C5.39052 12.9984 5.92062 13.5 6.57954 13.5H15.626L11.8856 16.8937C11.405 17.3297 11.3951 18.0563 11.8657 18.5016L12.4107 19.0125C12.8764 19.4531 13.6295 19.4531 14.0902 19.0125L20.6645 12.7969C21.1302 12.3563 21.1302 11.6438 20.6645 11.2078L14.0902 4.98281C13.6245 4.54219 12.8715 4.54219 12.4107 4.98281L11.8657 5.49375C11.3951 5.94375 11.405 6.67031 11.8856 7.10625Z" fill="black"/>
</svg>
