<svg width="24" height="24" viewBox="0 0 24 24" fill="none" xmlns="http://www.w3.org/2000/svg">
<path d="M22.1391 16.1813L20.5547 15.2672L21.7734 14.9391C22.1578 14.8359 22.3875 14.4375 22.2844 14.0531L22.0969 13.3547C21.9938 12.9703 21.5953 12.7406 21.2109 12.8438L17.8922 13.7344L14.8969 12L17.8875 10.2703L21.2063 11.1609C21.5906 11.2641 21.9891 11.0344 22.0922 10.65L22.2797 9.95156C22.3828 9.56719 22.1531 9.16875 21.7688 9.06562L20.55 8.7375L22.1344 7.82344C22.4813 7.62187 22.5984 7.18125 22.4016 6.83438L21.675 5.57812C21.4734 5.23125 21.0328 5.11406 20.6859 5.31094L19.1016 6.225L19.4297 5.00625C19.5328 4.62188 19.3031 4.22344 18.9188 4.12031L18.2203 3.93281C17.8359 3.82969 17.4375 4.05938 17.3344 4.44375L16.4438 7.7625L13.5 9.45938V5.82656L16.0172 3.30937C16.3078 3.01875 16.3078 2.54062 16.0172 2.25L15.4875 1.72031C15.1969 1.42969 14.7188 1.42969 14.4281 1.72031L13.5 2.64375V0.75C13.5 0.3375 13.1625 0 12.75 0H11.25C10.8375 0 10.5 0.3375 10.5 0.75V2.64375L9.57656 1.72031C9.28594 1.42969 8.80781 1.42969 8.51719 1.72031L7.98281 2.25C7.6875 2.54062 7.6875 3.01875 7.98281 3.30937L10.5 5.82656V9.45938L7.55625 7.7625L6.66563 4.44375C6.5625 4.05938 6.16406 3.82969 5.77969 3.93281L5.08125 4.12031C4.69688 4.22344 4.46719 4.62188 4.57031 5.00625L4.89844 6.225L3.31406 5.31094C2.96719 5.10938 2.52656 5.23125 2.325 5.57812L1.59844 6.82969C1.39688 7.17656 1.51875 7.61719 1.86563 7.81875L3.45 8.73281L2.23125 9.06094C1.84219 9.16406 1.6125 9.5625 1.71563 9.95156L1.90313 10.65C2.00625 11.0344 2.40469 11.2641 2.78906 11.1609L6.10781 10.2703L9.09844 12L6.10781 13.7297L2.78906 12.8391C2.40469 12.7359 2.00625 12.9656 1.90313 13.35L1.71563 14.0484C1.6125 14.4328 1.84219 14.8313 2.22656 14.9344L3.44531 15.2625L1.86094 16.1813C1.51406 16.3828 1.39688 16.8234 1.59375 17.1703L2.32031 18.4266C2.52188 18.7734 2.9625 18.8906 3.30938 18.6937L4.89375 17.7797L4.56563 18.9984C4.4625 19.3828 4.69219 19.7813 5.07656 19.8844L5.775 20.0719C6.15938 20.175 6.55781 19.9453 6.66094 19.5609L7.55156 16.2422L10.4953 14.5453V18.1781L7.97813 20.6953C7.68281 20.9859 7.68281 21.4641 7.97813 21.7547L8.50781 22.2844C8.79844 22.575 9.27656 22.575 9.56719 22.2844L10.4906 21.3609V23.25C10.4906 23.6625 10.8281 24 11.2406 24H12.7406C13.1531 24 13.4906 23.6625 13.4906 23.25V21.3563L14.4141 22.2797C14.7047 22.5703 15.1828 22.5703 15.4734 22.2797L16.0031 21.75C16.2938 21.4594 16.2938 20.9812 16.0031 20.6906L13.5 18.1734V14.5406L16.4438 16.2375L17.3344 19.5563C17.4375 19.9406 17.8359 20.1703 18.2203 20.0672L18.9188 19.8797C19.3031 19.7766 19.5328 19.3781 19.4297 18.9938L19.1016 17.775L20.6859 18.6891C21.0328 18.8906 21.4734 18.7688 21.675 18.4219L22.4016 17.1656C22.6031 16.8234 22.4859 16.3781 22.1391 16.1813Z" fill="#339FFF"/>
</svg>
