<svg width="206" height="35" viewBox="0 0 206 35" fill="none" xmlns="http://www.w3.org/2000/svg">
<mask id="mask0_87_601" style="mask-type:luminance" maskUnits="userSpaceOnUse" x="2" y="0" width="201" height="35">
<path d="M2.53638 0H202.812V34.026H2.53638V0Z" fill="white"/>
</mask>
<g mask="url(#mask0_87_601)">
<path d="M2.53638 0H202.812V34.026H2.53638V0Z" fill="white"/>
</g>
<mask id="mask1_87_601" style="mask-type:luminance" maskUnits="userSpaceOnUse" x="2" y="0" width="34" height="34">
<path d="M2.53638 0.442719H35.2083V33.1146H2.53638V0.442719Z" fill="white"/>
</mask>
<g mask="url(#mask1_87_601)">
<mask id="mask2_87_601" style="mask-type:luminance" maskUnits="userSpaceOnUse" x="2" y="0" width="34" height="34">
<path d="M18.8749 0.442719C9.84888 0.442719 2.53638 7.75522 2.53638 16.7813C2.53638 25.8021 9.84888 33.1146 18.8749 33.1146C27.8958 33.1146 35.2083 25.8021 35.2083 16.7813C35.2083 7.75522 27.8958 0.442719 18.8749 0.442719Z" fill="white"/>
</mask>
<g mask="url(#mask2_87_601)">
<path d="M2.53638 0.442719H35.2083V33.1146H2.53638V0.442719Z" fill="#F37021"/>
</g>
</g>
<mask id="mask3_87_601" style="mask-type:luminance" maskUnits="userSpaceOnUse" x="11" y="9" width="16" height="16">
<path d="M11.3333 9.23959H26.2135V24.1198H11.3333V9.23959Z" fill="white"/>
</mask>
<g mask="url(#mask3_87_601)">
<mask id="mask4_87_601" style="mask-type:luminance" maskUnits="userSpaceOnUse" x="11" y="9" width="16" height="16">
<path d="M18.776 9.23959C14.6666 9.23959 11.3333 12.5729 11.3333 16.6823C11.3333 20.7917 14.6666 24.1198 18.776 24.1198C22.8853 24.1198 26.2135 20.7917 26.2135 16.6823C26.2135 12.5729 22.8853 9.23959 18.776 9.23959Z" fill="white"/>
</mask>
<g mask="url(#mask4_87_601)">
<path d="M11.3333 9.23959H26.2135V24.1198H11.3333V9.23959Z" fill="white"/>
</g>
</g>
<path d="M42.9219 5.30728V28.2604" stroke="#F37021" stroke-width="9.72223" stroke-linecap="round"/>
<mask id="mask5_87_601" style="mask-type:luminance" maskUnits="userSpaceOnUse" x="37" y="4" width="11" height="31">
<path d="M37.3333 4H47.9999V34.026H37.3333V4Z" fill="white"/>
</mask>
<g mask="url(#mask5_87_601)">
<path d="M42.927 8.97397L42.927 33.5261" stroke="#F37021" stroke-width="9.72223"/>
</g>
<mask id="mask6_87_601" style="mask-type:luminance" maskUnits="userSpaceOnUse" x="93" y="0" width="110" height="34">
<path d="M93.3542 0.3125H202.245V33.3646H93.3542V0.3125Z" fill="white"/>
</mask>
<g mask="url(#mask6_87_601)">
<path d="M181.745 33.3646V12.6146C181.745 11.8802 181.193 11.1458 180.281 11.1458C179.552 11.1458 178.823 11.6979 178.823 12.6146V33.3646H169.505V11.1458C169.505 5.08333 174.438 0.3125 180.281 0.3125C186.125 0.3125 191.057 5.08333 191.057 11.1458V33.3646H181.745ZM164.391 24H167.682V33.3646H149.052C144.849 33.3646 141.562 30.0625 141.562 25.8385V7.83854C141.562 3.61458 144.849 0.3125 149.052 0.3125H167.682V9.67708H164.391V24ZM156.172 24V9.67708H152.885C151.792 9.67708 151.062 10.5938 151.062 11.5104V21.9792C151.062 23.0833 151.974 23.8177 152.885 23.8177L156.172 24ZM44.0417 6.36979V5.08333C44.0417 2.51563 46.0469 0.3125 48.6042 0.3125C51.1615 0.3125 53.1719 2.51563 53.1719 5.08333V33.3646H43.8594V27.3073H37.4635C34.5417 30.9792 29.9792 33.3646 24.8646 33.3646C15.9167 33.3646 8.60938 26.0208 8.60938 16.8385C8.60938 7.65625 15.9167 0.3125 24.8646 0.3125C29.9792 0.3125 34.5417 2.69792 37.4635 6.36979H44.0417ZM41.1198 15C41.1198 15.5521 41.3021 16.2865 41.3021 16.8385C41.3021 17.3906 41.3021 18.125 41.1198 18.6719H44.0417V15H41.1198ZM24.8646 24.3646C29.0625 24.3646 32.3542 21.0625 32.3542 16.8385C32.3542 12.6146 29.0625 9.30729 24.8646 9.30729C20.6615 9.30729 17.375 12.6146 17.375 16.8385C17.375 21.0625 20.8437 24.3646 24.8646 24.3646ZM78.5573 2.51563C79.8333 3.79688 80.75 5.81771 80.75 7.83854V33.3646H71.4323V11.6979C71.4323 10.5938 70.5208 9.85938 69.6094 9.85938H59.3802C56.8229 9.85938 54.8177 7.65625 54.8177 5.08333C54.8177 2.51563 56.8229 0.3125 59.3802 0.3125H73.2604C75.2708 0.3125 77.276 1.22917 78.5573 2.51563ZM87.3229 0.3125C89.8802 0.3125 91.8906 2.51563 91.8906 5.08333V33.3646H82.5729V5.08333C82.5729 2.51563 84.5833 0.3125 87.3229 0.3125ZM129.51 12.0625V5.08333C129.51 2.51563 131.521 0.3125 134.078 0.3125C136.635 0.3125 138.641 2.51563 138.641 5.08333V33.3646H129.328V21.6146H125.859C123.849 28.4063 117.641 33.3646 110.333 33.3646C101.385 33.3646 94.0781 26.0208 94.0781 16.8385C94.0781 7.65625 101.385 0.3125 110.333 0.3125C117.641 0.3125 123.849 5.27083 125.859 12.0625H129.51ZM110.516 24.3646C114.719 24.3646 118.005 21.0625 118.005 16.8385C118.005 12.6146 114.536 9.30729 110.516 9.30729C106.5 9.30729 103.031 12.6146 103.031 16.8385C103.031 21.0625 106.318 24.3646 110.516 24.3646ZM197.448 33.3646C194.891 33.3646 192.885 31.1615 192.885 28.5885C192.885 26.0208 194.891 23.8177 197.448 23.8177C200.005 23.8177 202.016 26.0208 202.016 28.5885C202.016 31.1615 200.005 33.3646 197.448 33.3646Z" fill="#F37021"/>
</g>
<path d="M55.0938 30.1771V15.6042" stroke="#F37021" stroke-width="5.83334" stroke-linecap="round"/>
<path d="M87.4688 30.2656V18.5677" stroke="#F37021" stroke-width="5.83334" stroke-linecap="round"/>
<path d="M55.0989 30.3073H87.177" stroke="#F37021" stroke-width="5.83334" stroke-linecap="round"/>
<path d="M54.6145 22.5885H87.6614" stroke="#F37021" stroke-width="4.86111" stroke-linecap="round"/>
<path d="M87.4792 3.22916L54.5834 3.22916" stroke="#F37021" stroke-width="5.83334" stroke-linecap="round"/>
<mask id="mask7_87_601" style="mask-type:luminance" maskUnits="userSpaceOnUse" x="21" y="0" width="82" height="35">
<path d="M21.3333 0H102.667V34.026H21.3333V0Z" fill="white"/>
</mask>
<g mask="url(#mask7_87_601)">
<path d="M68.7238 5.06772L55.0988 15.6875" stroke="#F37021" stroke-width="5.83333" stroke-linecap="round"/>
</g>
<mask id="mask8_87_601" style="mask-type:luminance" maskUnits="userSpaceOnUse" x="37" y="0" width="83" height="35">
<path d="M37.3333 0H120V34.026H37.3333V0Z" fill="white"/>
</mask>
<g mask="url(#mask8_87_601)">
<path d="M86.3019 15.7135L71.1457 4.08853" stroke="#F37021" stroke-width="5.83333" stroke-linecap="round"/>
</g>
<path d="M87.4688 18.4948V3.88019" stroke="#F37021" stroke-width="5.83334" stroke-linecap="round"/>
</svg>
