<svg width="3538" height="835" viewBox="0 0 3538 835" fill="none" xmlns="http://www.w3.org/2000/svg">
<g filter="url(#filter0_bdf_356_685)">
<path fill-rule="evenodd" clip-rule="evenodd" d="M424.403 674.637C377.664 704.059 337.125 760.186 281.897 760.319C3.99998 760.99 3.99978 746.692 4 382.701C4 82.9167 240.873 151.508 339.597 89.3628C386.336 59.941 426.877 3.71235 482.103 4.31336C760 7.33767 760 39.5088 760 381.299C760 681.083 523.126 612.492 424.403 674.637Z" fill="url(#paint0_linear_356_685)"/>
</g>
<g filter="url(#filter1_df_356_685)">
<path d="M1357.7 169.8C1357.7 152.567 1363.02 139.183 1373.65 129.65C1384.29 120.117 1397.3 115.35 1412.7 115.35C1428.1 115.35 1441.12 120.117 1451.75 129.65C1462.39 139.183 1467.7 152.567 1467.7 169.8V631.8H1357.7V169.8ZM982.602 271.55C982.602 240.75 989.202 214.35 1002.4 192.35C1015.97 169.983 1034.49 153.117 1057.95 141.75C1081.42 130.017 1108.37 124.15 1138.8 124.15C1169.24 124.15 1196.19 129.833 1219.65 141.2C1243.49 152.567 1262 169.433 1275.2 191.8C1288.77 213.8 1295.55 240.383 1295.55 271.55V473.4C1295.55 504.567 1288.77 531.333 1275.2 553.7C1262 576.067 1243.49 592.933 1219.65 604.3C1196.19 615.667 1169.42 621.35 1139.35 621.35C1108.92 621.35 1081.79 615.667 1057.95 604.3C1034.49 592.933 1015.97 576.067 1002.4 553.7C989.202 531.333 982.602 504.567 982.602 473.4V271.55ZM1089.85 477.25C1089.85 494.483 1094.62 507.867 1104.15 517.4C1113.69 526.567 1125.24 531.15 1138.8 531.15C1152.37 531.15 1164.1 526.567 1174 517.4C1183.9 507.867 1188.85 494.483 1188.85 477.25V267.7C1188.85 251.2 1183.9 238.183 1174 228.65C1164.47 219.117 1153.1 214.35 1139.9 214.35C1125.97 214.35 1114.05 219.117 1104.15 228.65C1094.62 237.817 1089.85 250.833 1089.85 267.7V477.25ZM1946.2 169.8C1946.2 152.567 1951.52 139.183 1962.15 129.65C1972.79 120.117 1985.8 115.35 2001.2 115.35C2016.6 115.35 2029.62 120.117 2040.25 129.65C2050.89 139.183 2056.2 152.567 2056.2 169.8V395.3H1946.2V169.8ZM1671.2 631.8C1651.04 631.8 1635.45 629.233 1624.45 624.1C1613.45 618.967 1605.57 610.9 1600.8 599.9C1596.4 588.9 1594.2 573.867 1594.2 554.8V465.7C1594.2 448.467 1599.15 435.633 1609.05 427.2C1619.32 418.4 1632.89 414 1649.75 414C1665.15 414 1677.62 417.667 1687.15 425C1696.69 432.333 1702.19 443.333 1703.65 458H1947.3C1948.77 443.333 1954.27 432.333 1963.8 425C1973.7 417.667 1986.54 414 2002.3 414C2018.8 414 2032 418.4 2041.9 427.2C2051.8 435.633 2056.75 448.467 2056.75 465.7V631.8H1671.2ZM1595.3 315C1620.97 311.333 1640.59 301.983 1654.15 286.95C1668.09 271.55 1675.05 252.667 1675.05 230.3V219.3H1604.65C1592.55 219.3 1582.84 214.9 1575.5 206.1C1568.17 197.3 1564.5 187.4 1564.5 176.4C1564.5 165.033 1567.99 154.95 1574.95 146.15C1581.92 137.35 1591.82 132.95 1604.65 132.95H1859.3C1872.14 132.95 1882.04 137.35 1889 146.15C1895.97 154.95 1899.45 165.033 1899.45 176.4C1899.45 187.4 1895.79 197.3 1888.45 206.1C1881.12 214.9 1871.4 219.3 1859.3 219.3H1779V230.3C1779 238.367 1778.45 246.067 1777.35 253.4C1863.15 254.5 1904.95 301.8 1902.75 395.3H1799.9C1801.74 375.5 1797.7 359.367 1787.8 346.9C1778.27 334.067 1765.07 328.017 1748.2 328.75C1732.44 350.75 1712.27 367.983 1687.7 380.45C1663.5 392.917 1638.02 399.15 1611.25 399.15C1596.95 399.15 1584.85 395.3 1574.95 387.6C1565.42 379.533 1560.65 368.717 1560.65 355.15C1560.65 343.783 1563.59 334.617 1569.45 327.65C1575.69 320.683 1584.3 316.467 1595.3 315ZM1704.2 547.65C1704.2 553.15 1705.12 556.633 1706.95 558.1C1708.79 559.567 1712.45 560.3 1717.95 560.3H1946.75V526.2H1704.2V547.65ZM2534.7 169.8C2534.7 152.567 2540.02 139.183 2550.65 129.65C2561.29 120.117 2574.3 115.35 2589.7 115.35C2605.1 115.35 2618.12 120.117 2628.75 129.65C2639.39 139.183 2644.7 152.567 2644.7 169.8V631.8H2534.7V413.45H2464.3V474.5C2464.3 505.667 2457.89 532.25 2445.05 554.25C2432.22 576.25 2414.25 592.933 2391.15 604.3C2368.42 615.667 2342.2 621.35 2312.5 621.35C2282.44 621.35 2255.85 615.667 2232.75 604.3C2210.02 592.933 2192.05 576.25 2178.85 554.25C2166.02 532.25 2159.6 505.667 2159.6 474.5V271C2159.6 240.2 2166.02 213.8 2178.85 191.8C2191.69 169.433 2209.47 152.567 2232.2 141.2C2255.3 129.833 2281.89 124.15 2311.95 124.15C2342.02 124.15 2368.42 129.833 2391.15 141.2C2414.25 152.567 2432.22 169.25 2445.05 191.25C2457.89 213.25 2464.3 239.833 2464.3 271V319.4H2534.7V169.8ZM2265.2 479.45C2265.2 496.317 2269.6 509.333 2278.4 518.5C2287.57 527.3 2298.75 531.7 2311.95 531.7C2325.15 531.7 2336.15 527.117 2344.95 517.95C2354.12 508.783 2358.7 495.95 2358.7 479.45V265.5C2358.7 249.367 2354.12 236.717 2344.95 227.55C2336.15 218.383 2325.52 213.8 2313.05 213.8C2299.49 213.8 2288.12 218.383 2278.95 227.55C2269.79 236.717 2265.2 249.367 2265.2 265.5V479.45ZM3147.95 162.65C3147.95 148.35 3152.35 136.983 3161.15 128.55C3169.95 119.75 3181.69 115.35 3196.35 115.35C3211.02 115.35 3222.57 119.75 3231 128.55C3239.8 136.983 3244.2 148.35 3244.2 162.65V631.8H3147.95V406.3H3123.2V631.8H3026.95V162.65C3026.95 148.35 3031.35 136.983 3040.15 128.55C3048.95 119.75 3060.69 115.35 3075.35 115.35C3090.02 115.35 3101.57 119.75 3110 128.55C3118.8 136.983 3123.2 148.35 3123.2 162.65V315H3147.95V162.65ZM2824 615.3C2801.27 615.3 2784.22 612.917 2772.85 608.15C2761.85 603.75 2754.34 596.05 2750.3 585.05C2746.27 573.683 2744.25 556.817 2744.25 534.45V214.9C2744.25 192.533 2746.27 175.85 2750.3 164.85C2754.34 153.483 2761.85 145.6 2772.85 141.2C2784.22 136.8 2801.27 134.6 2824 134.6H2971.4C3000.37 134.6 3014.85 147.25 3014.85 172.55C3014.85 184.65 3011.74 194.183 3005.5 201.15C2999.64 208.117 2991.75 211.6 2981.85 211.6H2965.9V538.3H2974.15C3003.12 538.3 3017.6 550.95 3017.6 576.25C3017.6 602.283 3003.12 615.3 2974.15 615.3H2824ZM2838.85 523.45C2838.85 529.683 2839.77 533.717 2841.6 535.55C2843.44 537.383 2847.47 538.3 2853.7 538.3H2877.35V211.6H2853.7C2847.47 211.6 2843.44 212.517 2841.6 214.35C2839.77 216.183 2838.85 220.217 2838.85 226.45V523.45ZM3326.15 568C3326.15 550.767 3331.29 537.2 3341.55 527.3C3352.19 517.4 3366.67 512.45 3385 512.45C3403.34 512.45 3417.64 517.583 3427.9 527.85C3438.54 537.75 3443.85 551.133 3443.85 568C3443.85 584.867 3438.54 598.25 3427.9 608.15C3417.64 618.417 3403.34 623.55 3385 623.55C3366.67 623.55 3352.19 618.6 3341.55 608.7C3331.29 598.8 3326.15 585.233 3326.15 568Z" fill="#1F1F1F"/>
</g>
<defs>
<filter id="filter0_bdf_356_685" x="-176" y="-175.691" width="1116" height="1116.03" filterUnits="userSpaceOnUse" color-interpolation-filters="sRGB">
<feFlood flood-opacity="0" result="BackgroundImageFix"/>
<feGaussianBlur in="BackgroundImageFix" stdDeviation="90"/>
<feComposite in2="SourceAlpha" operator="in" result="effect1_backgroundBlur_356_685"/>
<feColorMatrix in="SourceAlpha" type="matrix" values="0 0 0 0 0 0 0 0 0 0 0 0 0 0 0 0 0 0 127 0" result="hardAlpha"/>
<feOffset dy="70"/>
<feGaussianBlur stdDeviation="2"/>
<feComposite in2="hardAlpha" operator="out"/>
<feColorMatrix type="matrix" values="0 0 0 0 1 0 0 0 0 0.802206 0 0 0 0 0.682926 0 0 0 0.8 0"/>
<feBlend mode="normal" in2="effect1_backgroundBlur_356_685" result="effect2_dropShadow_356_685"/>
<feBlend mode="normal" in="SourceGraphic" in2="effect2_dropShadow_356_685" result="shape"/>
<feGaussianBlur stdDeviation="2" result="effect3_foregroundBlur_356_685"/>
</filter>
<filter id="filter1_df_356_685" x="978.602" y="111.35" width="2469.25" height="528.45" filterUnits="userSpaceOnUse" color-interpolation-filters="sRGB">
<feFlood flood-opacity="0" result="BackgroundImageFix"/>
<feColorMatrix in="SourceAlpha" type="matrix" values="0 0 0 0 0 0 0 0 0 0 0 0 0 0 0 0 0 0 127 0" result="hardAlpha"/>
<feOffset dy="4"/>
<feGaussianBlur stdDeviation="2"/>
<feComposite in2="hardAlpha" operator="out"/>
<feColorMatrix type="matrix" values="0 0 0 0 0 0 0 0 0 0 0 0 0 0 0 0 0 0 0.25 0"/>
<feBlend mode="normal" in2="BackgroundImageFix" result="effect1_dropShadow_356_685"/>
<feBlend mode="normal" in="SourceGraphic" in2="effect1_dropShadow_356_685" result="shape"/>
<feGaussianBlur stdDeviation="2" result="effect2_foregroundBlur_356_685"/>
</filter>
<linearGradient id="paint0_linear_356_685" x1="4" y1="382.17" x2="760" y2="382.17" gradientUnits="userSpaceOnUse">
<stop stop-color="#F37021"/>
<stop offset="1" stop-color="#FF9C60"/>
</linearGradient>
</defs>
</svg>
