<svg xmlns="http://www.w3.org/2000/svg" xmlns:xlink="http://www.w3.org/1999/xlink" width="206" zoomAndPan="magnify" viewBox="0 0 154.5 30.000001" height="40" preserveAspectRatio="xMidYMid meet" version="1.0"><defs><clipPath id="ab919b24fd"><path d="M 2.25 2.394531 L 26.664062 2.394531 L 26.664062 26.804688 L 2.25 26.804688 Z M 2.25 2.394531 " clip-rule="nonzero"/></clipPath><clipPath id="08b7bd1fee"><path d="M 14.457031 2.394531 C 7.714844 2.394531 2.25 7.859375 2.25 14.597656 C 2.25 21.339844 7.714844 26.804688 14.457031 26.804688 C 21.199219 26.804688 26.664062 21.339844 26.664062 14.597656 C 26.664062 7.859375 21.199219 2.394531 14.457031 2.394531 Z M 14.457031 2.394531 " clip-rule="nonzero"/></clipPath><clipPath id="79619d4083"><path d="M 8.824219 8.96875 L 19.945312 8.96875 L 19.945312 20.085938 L 8.824219 20.085938 Z M 8.824219 8.96875 " clip-rule="nonzero"/></clipPath><clipPath id="fdca2d71c6"><path d="M 14.382812 8.96875 C 11.3125 8.96875 8.824219 11.457031 8.824219 14.527344 C 8.824219 17.597656 11.3125 20.085938 14.382812 20.085938 C 17.453125 20.085938 19.945312 17.597656 19.945312 14.527344 C 19.945312 11.457031 17.453125 8.96875 14.382812 8.96875 Z M 14.382812 8.96875 " clip-rule="nonzero"/></clipPath><clipPath id="ca3a8ecff8"><path d="M 29 6 L 35 6 L 35 29.03125 L 29 29.03125 Z M 29 6 " clip-rule="nonzero"/></clipPath><clipPath id="627ddd2151"><path d="M 70.113281 2.292969 L 150 2.292969 L 150 28.070312 L 70.113281 28.070312 Z M 70.113281 2.292969 " clip-rule="nonzero"/></clipPath><clipPath id="429fbeca6f"><path d="M 12 0 L 81 0 L 81 29.03125 L 12 29.03125 Z M 12 0 " clip-rule="nonzero"/></clipPath><clipPath id="e45fe9ed67"><path d="M 24 0 L 94 0 L 94 29.03125 L 24 29.03125 Z M 24 0 " clip-rule="nonzero"/></clipPath></defs><g clip-path="url(#ab919b24fd)"><g clip-path="url(#08b7bd1fee)"><path fill="#000000" d="M 2.25 2.394531 L 26.664062 2.394531 L 26.664062 26.804688 L 2.25 26.804688 Z M 2.25 2.394531 " fill-opacity="1" fill-rule="nonzero"/></g></g><g clip-path="url(#79619d4083)"><g clip-path="url(#fdca2d71c6)"><path fill="#ffffff" d="M 8.824219 8.96875 L 19.945312 8.96875 L 19.945312 20.085938 L 8.824219 20.085938 Z M 8.824219 8.96875 " fill-opacity="1" fill-rule="nonzero"/></g></g><path stroke-linecap="round" transform="matrix(0, 5.15569, -5.15569, 0, 35.007379, 2.395119)" fill="none" stroke-linejoin="miter" d="M 0.49994 0.49997 L 4.235194 0.49997 " stroke="#000000" stroke-width="1" stroke-opacity="1" stroke-miterlimit="4"/><g clip-path="url(#ca3a8ecff8)"><path stroke-linecap="butt" transform="matrix(0.00000000899838, 5.15569, -5.15569, 0.00000000899838, 34.980944, 8.796851)" fill="none" stroke-linejoin="miter" d="M 0.00000459457 0.500146 L 3.557966 0.500147 " stroke="#000000" stroke-width="1" stroke-opacity="1" stroke-miterlimit="4"/></g><g clip-path="url(#627ddd2151)"><path fill="#000000" d="M 134.789062 28.070312 L 134.789062 11.886719 C 134.789062 11.316406 134.386719 10.742188 133.707031 10.742188 C 133.167969 10.742188 132.628906 11.171875 132.628906 11.886719 L 132.628906 28.070312 L 125.730469 28.070312 L 125.730469 10.742188 C 125.730469 6.015625 129.382812 2.292969 133.707031 2.292969 C 138.035156 2.292969 141.6875 6.015625 141.6875 10.742188 L 141.6875 28.070312 Z M 121.945312 20.769531 L 124.378906 20.769531 L 124.378906 28.070312 L 110.585938 28.070312 C 107.476562 28.070312 105.042969 25.492188 105.042969 22.199219 L 105.042969 8.164062 C 105.042969 4.871094 107.476562 2.292969 110.585938 2.292969 L 124.378906 2.292969 L 124.378906 9.597656 L 121.945312 9.597656 Z M 115.859375 20.769531 L 115.859375 9.597656 L 113.425781 9.597656 C 112.613281 9.597656 112.074219 10.3125 112.074219 11.027344 L 112.074219 19.191406 C 112.074219 20.050781 112.75 20.625 113.425781 20.625 Z M 32.832031 7.019531 L 32.832031 6.015625 C 32.832031 4.011719 34.320312 2.292969 36.214844 2.292969 C 38.105469 2.292969 39.59375 4.011719 39.59375 6.015625 L 39.59375 28.070312 L 32.699219 28.070312 L 32.699219 23.34375 L 27.964844 23.34375 C 25.800781 26.210938 22.421875 28.070312 18.632812 28.070312 C 12.007812 28.070312 6.597656 22.34375 6.597656 15.183594 C 6.597656 8.023438 12.007812 2.292969 18.632812 2.292969 C 22.421875 2.292969 25.800781 4.15625 27.964844 7.019531 Z M 30.667969 13.75 C 30.667969 14.179688 30.804688 14.753906 30.804688 15.183594 C 30.804688 15.613281 30.804688 16.183594 30.667969 16.613281 L 32.832031 16.613281 L 32.832031 13.75 Z M 18.632812 21.054688 C 21.746094 21.054688 24.179688 18.476562 24.179688 15.183594 C 24.179688 11.886719 21.746094 9.3125 18.632812 9.3125 C 15.523438 9.3125 13.089844 11.886719 13.089844 15.183594 C 13.089844 18.476562 15.660156 21.054688 18.632812 21.054688 Z M 58.390625 4.011719 C 59.335938 5.015625 60.011719 6.589844 60.011719 8.164062 L 60.011719 28.070312 L 53.117188 28.070312 L 53.117188 11.171875 C 53.117188 10.3125 52.441406 9.742188 51.765625 9.742188 L 44.191406 9.742188 C 42.296875 9.742188 40.8125 8.023438 40.8125 6.015625 C 40.8125 4.011719 42.296875 2.292969 44.191406 2.292969 L 54.46875 2.292969 C 55.957031 2.292969 57.441406 3.007812 58.390625 4.011719 Z M 64.878906 2.292969 C 66.773438 2.292969 68.261719 4.011719 68.261719 6.015625 L 68.261719 28.070312 L 61.363281 28.070312 L 61.363281 6.015625 C 61.363281 4.011719 62.851562 2.292969 64.878906 2.292969 Z M 96.117188 11.457031 L 96.117188 6.015625 C 96.117188 4.011719 97.605469 2.292969 99.496094 2.292969 C 101.390625 2.292969 102.878906 4.011719 102.878906 6.015625 L 102.878906 28.070312 L 95.980469 28.070312 L 95.980469 18.90625 L 93.414062 18.90625 C 91.925781 24.203125 87.328125 28.070312 81.917969 28.070312 C 75.292969 28.070312 69.882812 22.34375 69.882812 15.183594 C 69.882812 8.023438 75.292969 2.292969 81.917969 2.292969 C 87.328125 2.292969 91.925781 6.160156 93.414062 11.457031 Z M 82.054688 21.054688 C 85.164062 21.054688 87.597656 18.476562 87.597656 15.183594 C 87.597656 11.886719 85.027344 9.3125 82.054688 9.3125 C 79.078125 9.3125 76.507812 11.886719 76.507812 15.183594 C 76.507812 18.476562 78.945312 21.054688 82.054688 21.054688 Z M 146.417969 28.070312 C 144.527344 28.070312 143.039062 26.351562 143.039062 24.347656 C 143.039062 22.34375 144.527344 20.625 146.417969 20.625 C 148.3125 20.625 149.800781 22.34375 149.800781 24.347656 C 149.800781 26.351562 148.3125 28.070312 146.417969 28.070312 Z M 146.417969 28.070312 " fill-opacity="1" fill-rule="nonzero"/></g><path stroke-linecap="round" transform="matrix(0, -5.15569, 5.15569, 0, 38.936186, 26.7821)" fill="none" stroke-linejoin="miter" d="M 0.500219 0.500309 L 2.458007 0.500309 " stroke="#f37021" stroke-width="1" stroke-opacity="1" stroke-miterlimit="4"/><path stroke-linecap="round" transform="matrix(0, -5.15569, 5.15569, 0, 63.119536, 26.837821)" fill="none" stroke-linejoin="miter" d="M 0.499662 0.500356 L 2.040738 0.500356 " stroke="#f37021" stroke-width="1" stroke-opacity="1" stroke-miterlimit="4"/><path stroke-linecap="round" transform="matrix(5.15569, 0, 0, 5.15569, 39.347326, 22.131115)" fill="none" stroke-linejoin="miter" d="M 0.500118 0.499626 L 4.994545 0.499626 " stroke="#f37021" stroke-width="1" stroke-opacity="1" stroke-miterlimit="4"/><path stroke-linecap="round" transform="matrix(5.15569, 0, 0, 5.15569, 39.347326, 16.362334)" fill="none" stroke-linejoin="miter" d="M 0.500118 0.500238 L 4.994545 0.500238 " stroke="#f37021" stroke-width="1" stroke-opacity="1" stroke-miterlimit="4"/><path stroke-linecap="round" transform="matrix(-5.15569, 0.00000000899838, -0.00000000899838, -5.15569, 67.887403, 7.050472)" fill="none" stroke-linejoin="miter" d="M 0.500187 0.499994 L 5.112809 0.499994 " stroke="#f37021" stroke-width="1" stroke-opacity="1" stroke-miterlimit="4"/><g clip-path="url(#429fbeca6f)"><path stroke-linecap="round" transform="matrix(-4.066765, 3.169001, -3.169001, -4.066765, 54.997957, 6.54855)" fill="none" stroke-linejoin="miter" d="M 0.500404 0.499849 L 2.848784 0.499999 " stroke="#f37021" stroke-width="1" stroke-opacity="1" stroke-miterlimit="4"/></g><g clip-path="url(#e45fe9ed67)"><path stroke-linecap="round" transform="matrix(-4.090802, -3.137911, 3.137911, -4.090802, 64.985922, 17.168762)" fill="none" stroke-linejoin="miter" d="M 0.500223 0.49976 L 3.113997 0.500086 " stroke="#f37021" stroke-width="1" stroke-opacity="1" stroke-miterlimit="4"/></g><path stroke-linecap="round" transform="matrix(0, -5.15569, 5.15569, 0, 63.116983, 18.039972)" fill="none" stroke-linejoin="miter" d="M 0.500231 0.500094 L 2.463323 0.500094 " stroke="#f37021" stroke-width="1" stroke-opacity="1" stroke-miterlimit="4"/></svg>