<?xml version="1.0" standalone="no"?>
<!DOCTYPE svg PUBLIC "-//W3C//DTD SVG 20010904//EN"
 "http://www.w3.org/TR/2001/REC-SVG-20010904/DTD/svg10.dtd">
<svg version="1.0" xmlns="http://www.w3.org/2000/svg"
 width="500.000000pt" height="500.000000pt" viewBox="0 0 500.000000 500.000000"
 preserveAspectRatio="xMidYMid meet">

<!-- 배경을 검정색으로 설정하는 rect 태그 -->
<rect width="100%" height="100%" fill="black"/>

<g transform="translate(0.000000,500.000000) scale(0.100000,-0.100000)"
fill="#FFFFFF" stroke="none">
<path d="M1740 3980 c-410 -363 -746 -665 -747 -672 -2 -7 32 -50 75 -95 l77
-82 675 599 c371 329 677 599 680 599 3 1 310 -269 683 -599 l679 -600 46 52
c26 29 62 69 80 89 l33 37 -208 185 c-948 840 -1299 1147 -1313 1147 -8 0
-350 -297 -760 -660z"/>
<path d="M143 0 4170 c0 -232 2 -280 13 -273 8 4 93 79 189 166 195 176 188
165 188 303 l0 84 -195 0 -195 0 0 -280z"/>
<path d="M1966 3657 l-536 -472 2 -688 c3 -669 4 -689 22 -703 16 -11 82 -14
363 -14 l343 0 0 299 c0 287 1 299 21 325 l20 26 297 0 c163 0 302 -4 308 -8
31 -20 34 -55 34 -346 l0 -296 345 0 c332 0 346 1 365 20 20 20 20 33 20 703
l0 683 -367 325 c-202 178 -443 390 -535 471 l-166 148 -536 -473z"/>
<path d="M2393 2333 c-16 -6 -17 -39 -1 -49 7 -5 9 -2 5 9 -6 16 15 41 26 30
14 -13 6 -30 -19 -43 -33 -18 -71 -83 -80 -137 -5 -33 -2 -50 14 -77 20 -34
20 -35 1 -52 -28 -25 -24 -52 11 -72 23 -13 29 -22 25 -37 -17 -58 -17 -85 -3
-85 9 0 22 8 29 18 12 16 26 18 112 14 87 -4 97 -6 97 -23 0 -22 22 -25 38 -6
18 21 26 68 13 77 -9 5 -1 14 23 28 20 12 39 29 42 37 8 19 -13 45 -34 45 -13
0 -12 -3 4 -14 15 -12 17 -19 8 -32 -6 -10 -17 -20 -25 -23 -11 -3 -12 -1 -1
11 10 13 9 18 -5 29 -10 7 -15 9 -11 5 4 -5 4 -14 -1 -20 -14 -18 -24 -76 -12
-76 7 0 6 -11 -1 -32 -9 -26 -13 -29 -18 -14 -5 16 -20 19 -116 21 -101 2
-110 1 -127 -19 -18 -20 -18 -20 -12 -1 14 41 18 135 6 135 -7 0 -9 5 -6 10 3
6 1 10 -5 10 -17 0 -24 -31 -9 -42 12 -8 11 -9 -1 -5 -22 6 -24 36 -4 58 17
19 17 21 1 48 -23 40 -21 88 6 141 53 106 186 129 267 47 51 -52 63 -82 58
-154 -3 -55 -2 -62 9 -47 7 10 13 43 13 75 0 48 -5 64 -35 107 -20 29 -30 54
-25 57 16 10 12 42 -6 49 -21 8 -20 8 -39 -10 -12 -12 -36 -17 -91 -18 -64 -1
-74 1 -74 16 0 18 -21 22 -47 11z m245 -30 c-4 -22 -22 -20 -26 1 -2 10 3 16
13 16 10 0 15 -7 13 -17z"/>
<path d="M2295 2319 c-4 -6 -5 -12 -2 -15 2 -3 7 2 10 11 7 17 1 20 -8 4z"/>
<path d="M2260 2230 c8 -5 10 -10 5 -10 -6 0 -11 -8 -12 -19 -1 -14 3 -17 18
-14 26 7 22 49 -5 51 -17 1 -18 -1 -6 -8z"/>
<path d="M2545 2210 c-3 -5 1 -10 10 -10 9 0 13 5 10 10 -3 6 -8 10 -10 10 -2
0 -7 -4 -10 -10z"/>
<path d="M2460 2200 c0 -5 5 -10 10 -10 6 0 10 5 10 10 0 6 -4 10 -10 10 -5 0
-10 -4 -10 -10z"/>
<path d="M2503 2138 c1 -15 -3 -22 -11 -20 -8 1 -11 -2 -7 -8 7 -11 54 -3 70
12 6 6 4 7 -7 3 -14 -6 -18 -2 -18 14 0 12 -6 21 -15 21 -9 0 -14 -8 -12 -22z"/>
<path d="M3950 1821 c-31 -9 -33 14 38 -331 l58 -275 29 3 c16 2 39 8 51 12
l22 9 -24 117 c-13 64 -22 119 -19 122 2 3 30 10 62 16 l58 12 -3 40 c-2 21
-5 41 -7 43 -3 2 -32 -2 -66 -8 -42 -9 -64 -9 -68 -2 -4 5 -17 64 -30 130 -24
118 -25 121 -50 120 -14 -1 -37 -4 -51 -8z"/>
<path d="M770 1553 c-35 -145 -60 -230 -76 -253 -13 -19 -29 -59 -36 -89 -14
-64 -9 -70 77 -91 42 -10 58 -11 67 -2 18 18 38 14 47 -10 6 -18 34 -29 162
-64 146 -41 154 -42 172 -26 22 19 24 31 -13 -96 -12 -41 -19 -80 -17 -87 6
-13 85 -37 91 -26 2 3 27 93 56 199 57 204 57 204 111 179 l27 -12 -59 -205
c-32 -113 -58 -210 -59 -216 0 -11 88 -39 97 -31 6 6 233 816 233 832 0 13
-49 35 -80 35 -13 0 -26 -33 -60 -157 -24 -87 -45 -160 -47 -162 -3 -4 -83 17
-83 22 0 1 20 71 44 155 49 171 51 157 -26 176 -31 7 -24 26 -105 -267 -43
-156 -47 -166 -58 -140 -16 38 -27 45 -118 83 -111 46 -111 48 -54 220 26 77
47 147 47 157 0 15 -26 25 -137 56 -76 20 -141 37 -144 37 -3 0 -30 -98 -59
-217z m200 157 c58 -16 106 -30 107 -30 2 0 3 -7 3 -15 0 -8 -1 -15 -2 -15
-33 4 -233 70 -236 78 -6 18 13 15 128 -18z m-13 -51 c71 -20 111 -35 105 -41
-12 -12 -224 44 -230 60 -5 16 -4 16 125 -19z m-4 -55 c53 -15 97 -31 97 -35
0 -14 -18 -11 -127 18 -66 18 -103 32 -103 41 0 8 7 11 18 8 9 -3 61 -17 115
-32z m-40 -39 c51 -15 100 -28 109 -31 15 -5 15 -9 -3 -61 -22 -64 -24 -120
-6 -144 7 -9 27 -23 45 -33 33 -17 39 -34 22 -67 -7 -12 -21 -19 -40 -19 -32
0 -70 -30 -70 -55 0 -8 -7 -15 -15 -15 -8 0 -15 9 -15 19 0 20 -15 26 -167 71
-40 11 -73 23 -73 26 0 3 8 17 19 30 10 13 33 86 52 164 18 77 37 140 41 140
5 0 50 -11 101 -25z m257 -320 c16 -8 32 -24 35 -35 7 -22 -12 -117 -25 -125
-8 -5 -177 38 -186 48 -13 12 18 47 42 47 37 0 61 16 72 50 12 34 21 36 62 15z
m-414 -39 c27 -8 75 -21 107 -30 44 -13 57 -21 57 -36 0 -20 7 -22 194 -75 33
-9 55 -20 50 -25 -5 -5 -67 8 -142 29 -112 31 -137 41 -156 66 -23 29 -25 29
-61 16 -52 -18 -125 1 -125 34 0 39 6 41 76 21z"/>
<path d="M3610 1721 l-35 -6 4 -91 c5 -148 -19 -223 -113 -339 l-29 -36 29
-24 c16 -14 34 -24 41 -25 29 -1 130 143 157 224 6 16 12 13 52 -24 47 -43
134 -90 169 -90 15 0 25 10 33 33 7 18 12 36 12 39 0 3 -33 21 -74 42 -102 50
-161 115 -170 188 -12 94 -18 118 -30 117 -6 -1 -27 -4 -46 -8z"/>
<path d="M3265 1631 c-17 -3 -31 -14 -33 -23 -2 -10 11 -85 28 -168 18 -83 30
-153 28 -155 -2 -2 -21 -5 -42 -7 l-39 -3 -33 155 c-19 85 -34 156 -34 156 0
3 -83 -17 -90 -21 -4 -3 12 -98 36 -212 24 -115 44 -211 44 -215 0 -4 -12 5
-26 19 -25 25 -28 26 -123 19 -131 -9 -136 -5 -156 129 -23 156 -37 215 -49
215 -21 0 -271 -53 -278 -60 -5 -3 17 -106 47 -229 35 -142 52 -233 48 -251
-7 -38 4 -112 21 -135 12 -17 19 -18 85 -6 47 8 71 17 71 26 0 22 20 28 45 15
32 -17 312 40 336 69 14 17 17 12 37 -87 12 -58 23 -107 25 -108 1 -1 24 2 51
8 42 9 47 13 42 32 -19 73 -77 378 -73 382 3 3 22 9 41 14 32 7 37 6 41 -14 3
-11 23 -108 45 -215 22 -107 42 -196 44 -199 8 -7 86 9 92 19 3 6 -34 201 -82
435 -71 345 -91 424 -103 423 -9 -1 -29 -4 -46 -8z m-497 -156 c-3 -3 -232
-55 -244 -55 -2 0 -4 6 -4 13 0 15 243 69 249 55 1 -5 1 -11 -1 -13z m12 -44
c0 -5 -26 -15 -57 -21 -32 -7 -86 -18 -120 -25 -50 -10 -63 -10 -63 0 0 8 37
20 98 33 112 23 142 26 142 13z m0 -51 c0 -10 -39 -22 -135 -40 -33 -6 -68
-14 -77 -16 -11 -3 -18 0 -18 8 0 10 32 21 103 35 124 25 127 25 127 13z m14
-57 c2 -10 8 -38 11 -63 14 -89 41 -115 116 -112 34 2 37 -1 43 -31 5 -26 2
-35 -16 -49 -13 -10 -29 -23 -35 -28 -7 -6 -13 -26 -13 -45 0 -38 -5 -42 -29
-21 -14 13 -30 12 -126 -9 -61 -13 -116 -24 -122 -25 -9 0 -11 12 -7 43 4 29
-4 80 -25 167 -17 68 -31 130 -31 136 0 6 43 20 98 32 124 25 130 26 136 5z
m301 -196 c8 -13 16 -45 17 -72 l3 -50 -75 -16 c-96 -22 -107 -22 -114 -4 -8
23 1 38 35 58 29 16 31 21 27 62 l-3 45 47 0 c39 0 50 -4 63 -23z m42 -29 c-3
-8 -6 -5 -6 6 -1 11 2 17 5 13 3 -3 4 -12 1 -19z m-11 -136 c-3 -5 -66 -22
-141 -37 -115 -24 -139 -26 -159 -15 -31 16 -73 6 -81 -19 -8 -25 -102 -41
-116 -20 -21 32 -4 42 105 66 102 22 110 22 127 7 17 -16 27 -15 141 8 68 13
125 23 127 22 1 -1 0 -7 -3 -12z"/>
<path d="M1726 1494 c-3 -9 -6 -26 -6 -39 0 -26 -3 -25 145 -45 112 -15 110
-15 85 -50 -31 -43 -139 -117 -227 -155 -41 -19 -79 -37 -83 -42 -5 -4 -2 -23
6 -42 13 -31 17 -33 47 -27 37 7 166 67 206 95 l28 20 44 -46 c24 -25 62 -58
83 -74 l40 -29 28 27 c27 26 37 53 19 53 -4 0 -38 27 -75 61 l-66 61 34 40
c37 42 66 96 66 120 0 34 -36 47 -185 67 -179 25 -181 25 -189 5z"/>
<path d="M2266 1468 c-6 -19 -56 -399 -56 -425 0 -17 8 -22 46 -28 25 -3 48
-5 50 -3 5 5 66 450 62 453 -2 1 -24 6 -51 9 -35 5 -48 4 -51 -6z"/>
<path d="M3644 1170 l-22 -9 19 -93 c26 -125 37 -155 58 -161 15 -3 458 82
514 99 14 5 16 12 11 42 -4 20 -8 39 -10 41 -2 3 -103 -16 -225 -41 l-220 -46
-8 22 c-5 11 -14 51 -21 89 -12 66 -13 67 -44 66 -17 0 -41 -4 -52 -9z"/>
<path d="M1756 903 c-9 -71 -19 -139 -22 -153 -10 -53 6 -59 231 -91 240 -33
268 -34 284 -15 11 13 58 313 50 320 -2 2 -25 7 -51 10 l-47 7 -6 -38 c-4 -21
-8 -43 -10 -49 -2 -8 -29 -7 -97 2 -51 7 -121 16 -156 20 l-63 7 2 45 c4 50
-7 60 -67 61 l-31 1 -17 -127z m259 -83 c77 -11 143 -20 147 -20 11 0 10 -68
-1 -74 -8 -5 -298 31 -311 39 -11 7 2 75 14 75 6 0 74 -9 151 -20z"/>
</g>
</svg>
